<mxfile host="Electron" modified="2024-04-22T20:59:13.868Z" agent="Mozilla/5.0 (Macintosh; Intel Mac OS X 10_15_7) AppleWebKit/537.36 (KHTML, like Gecko) draw.io/23.0.2 Chrome/120.0.6099.109 Electron/28.1.0 Safari/537.36" version="23.0.2" etag="MkgACP2S13YThdp9u22_">
  <diagram id="_xG8W2YOmyjepS5zISt6" name="pageWithNumber">
    <mxGraphModel dx="-144" dy="-377" grid="0" gridSize="10" guides="1" tooltips="1" connect="1" arrows="1" fold="0" page="0" pageScale="1" pageWidth="850" pageHeight="1100" math="0" shadow="0">
      <root>
        <mxCell id="0" />
        <mxCell id="1" parent="0" />
        <UserObject label="%description%&lt;br&gt;&lt;br&gt;&lt;i&gt;%owner%&lt;/i&gt;&lt;br&gt;%xl_id%" owner="" description="data" status="" function="" phase="" estimated_duration="" estimated_completion_date="" notes="" wbs="" oqe="" xl_id="" placeholders="1" id="2">
          <mxCell style="whiteSpace=wrap;shape=mxgraph.flowchart.data;html=1;" parent="1" vertex="1">
            <mxGeometry x="20" y="20" width="200" height="100" as="geometry" />
          </mxCell>
        </UserObject>
        <UserObject label="%description%&lt;br&gt;&lt;br&gt;&lt;i&gt;%owner%&lt;/i&gt;&lt;br&gt;%xl_id%" owner="" description="decision" status="" function="" phase="" estimated_duration="" estimated_completion_date="" notes="" wbs="" oqe="" xl_id="" placeholders="1" id="3">
          <mxCell style="whiteSpace=wrap;shape=mxgraph.flowchart.decision;html=1;" parent="1" vertex="1">
            <mxGeometry x="20" y="180" width="100" height="100" as="geometry" />
          </mxCell>
        </UserObject>
        <UserObject label="%description%&lt;br&gt;&lt;br&gt;&lt;i&gt;%owner%&lt;/i&gt;&lt;br&gt;%xl_id%" owner="" description="document" status="" function="" phase="" estimated_duration="" estimated_completion_date="" notes="" wbs="" oqe="" xl_id="" placeholders="1" id="4">
          <mxCell style="whiteSpace=wrap;shape=mxgraph.flowchart.document;html=1;" parent="1" vertex="1">
            <mxGeometry x="20" y="340" width="200" height="100" as="geometry" />
          </mxCell>
        </UserObject>
        <UserObject label="%description%&lt;br&gt;&lt;br&gt;&lt;i&gt;%owner%&lt;/i&gt;&lt;br&gt;%xl_id%" owner="" description="end" status="" function="" phase="" estimated_duration="" estimated_completion_date="" notes="" wbs="" oqe="" xl_id="" placeholders="1" id="5">
          <mxCell style="whiteSpace=wrap;shape=mxgraph.flowchart.terminator;html=1;" parent="1" vertex="1">
            <mxGeometry x="20" y="500" width="100" height="100" as="geometry" />
          </mxCell>
        </UserObject>
        <UserObject label="%description%&lt;br&gt;&lt;br&gt;&lt;i&gt;%owner%&lt;/i&gt;&lt;br&gt;%xl_id%" owner="" description="subprocess" status="" function="" phase="" estimated_duration="" estimated_completion_date="" notes="" wbs="" oqe="" xl_id="" placeholders="1" id="6">
          <mxCell style="whiteSpace=wrap;shape=mxgraph.flowchart.predefined_process;html=1;" parent="1" vertex="1">
            <mxGeometry x="20" y="660" width="200" height="100" as="geometry" />
          </mxCell>
        </UserObject>
        <UserObject label="%description%&lt;br&gt;&lt;br&gt;&lt;i&gt;%owner%&lt;/i&gt;&lt;br&gt;%xl_id%" owner="" description="process" status="" function="" phase="" estimated_duration="" estimated_completion_date="" notes="" wbs="" oqe="" xl_id="" placeholders="1" id="7">
          <mxCell style="whiteSpace=wrap;shape=mxgraph.flowchart.process;html=1;" parent="1" vertex="1">
            <mxGeometry x="20" y="820" width="200" height="100" as="geometry" />
          </mxCell>
        </UserObject>
        <UserObject label="%description%&lt;br&gt;&lt;br&gt;&lt;i&gt;%owner%&lt;/i&gt;&lt;br&gt;%xl_id%" owner="" description="start" status="" function="" phase="" estimated_duration="" estimated_completion_date="" notes="" wbs="" oqe="" xl_id="" placeholders="1" id="8">
          <mxCell style="whiteSpace=wrap;shape=mxgraph.flowchart.start_1;html=1;" parent="1" vertex="1">
            <mxGeometry x="20" y="980" width="100" height="100" as="geometry" />
          </mxCell>
        </UserObject>
        <UserObject label="%description%&lt;br&gt;&lt;br&gt;&lt;i&gt;%owner%&lt;/i&gt;&lt;br&gt;%xl_id%" owner="" description="" status="" function="" phase="" estimated_duration="" estimated_completion_date="" notes="" wbs="" oqe="" xl_id="" placeholders="1" id="9">
          <mxCell style="whiteSpace=wrap;shape=mxgraph.flowchart.summing_function;html=1;" parent="1" vertex="1">
            <mxGeometry x="20" y="1140" width="100" height="100" as="geometry" />
          </mxCell>
        </UserObject>
        <UserObject label="%description%&lt;br&gt;&lt;br&gt;&lt;i&gt;%owner%&lt;/i&gt;&lt;br&gt;%xl_id%" owner="" description="" status="" function="" phase="" estimated_duration="" estimated_completion_date="" notes="" wbs="" oqe="" xl_id="" placeholders="1" id="10">
          <mxCell style="whiteSpace=wrap;shape=mxgraph.flowchart.or;html=1;" parent="1" vertex="1">
            <mxGeometry x="20" y="1300" width="100" height="100" as="geometry" />
          </mxCell>
        </UserObject>
      </root>
    </mxGraphModel>
  </diagram>
</mxfile>
